<svg width="1280" height="800" viewBox="0 0 1280 800" fill="none" xmlns="http://www.w3.org/2000/svg">
  <defs>
    <linearGradient id="cbg" x1="0" y1="0" x2="1280" y2="800" gradientUnits="userSpaceOnUse">
      <stop stop-color="#121B2A"/>
      <stop offset="1" stop-color="#0A111A"/>
    </linearGradient>
  </defs>
  <rect width="1280" height="800" fill="url(#cbg)"/>
  <rect x="80" y="70" width="1120" height="660" rx="24" fill="#0E1824" stroke="#2A5A9F" stroke-opacity="0.35"/>
  <rect x="130" y="130" width="600" height="220" rx="16" fill="#132235"/>
  <rect x="750" y="130" width="400" height="520" rx="16" fill="#111D2B"/>
  <rect x="130" y="370" width="600" height="280" rx="16" fill="#101A28"/>
  <circle cx="220" cy="240" r="54" fill="#2A5A9F" fill-opacity="0.35"/>
  <circle cx="350" cy="240" r="54" fill="#39FF14" fill-opacity="0.25"/>
  <circle cx="480" cy="240" r="54" fill="#FF6600" fill-opacity="0.28"/>
  <rect x="800" y="190" width="300" height="16" rx="8" fill="#2A5A9F" fill-opacity="0.8"/>
  <rect x="800" y="245" width="250" height="16" rx="8" fill="#39FF14" fill-opacity="0.7"/>
  <rect x="800" y="300" width="200" height="16" rx="8" fill="#FF6600" fill-opacity="0.7"/>
  <rect x="800" y="355" width="280" height="16" rx="8" fill="#2A5A9F" fill-opacity="0.8"/>
  <rect x="800" y="410" width="260" height="16" rx="8" fill="#39FF14" fill-opacity="0.7"/>
  <text x="140" y="110" fill="#A8BACF" font-family="Inter, Arial" font-size="24" font-weight="700">Competition Arena Visual</text>
</svg>
