<svg width="1600" height="900" viewBox="0 0 1600 900" fill="none" xmlns="http://www.w3.org/2000/svg">
  <defs>
    <linearGradient id="bg" x1="0" y1="0" x2="1600" y2="900" gradientUnits="userSpaceOnUse">
      <stop stop-color="#071428"/>
      <stop offset="1" stop-color="#0C111A"/>
    </linearGradient>
    <linearGradient id="line" x1="0" y1="0" x2="1" y2="1">
      <stop stop-color="#39FF14"/>
      <stop offset="1" stop-color="#2A5A9F"/>
    </linearGradient>
  </defs>
  <rect width="1600" height="900" fill="url(#bg)"/>
  <rect x="90" y="70" width="1420" height="760" rx="24" fill="#0F1724" stroke="#2A5A9F" stroke-opacity="0.4"/>
  <rect x="130" y="130" width="860" height="510" rx="18" fill="#0C141F" stroke="#2A5A9F" stroke-opacity="0.35"/>
  <path d="M170 500C250 470 310 330 400 360C510 398 570 490 690 410C770 356 850 250 950 280" stroke="url(#line)" stroke-width="8" stroke-linecap="round"/>
  <circle cx="950" cy="280" r="9" fill="#39FF14"/>
  <rect x="1030" y="130" width="440" height="245" rx="16" fill="#111D2B" stroke="#2A5A9F" stroke-opacity="0.4"/>
  <rect x="1030" y="395" width="440" height="245" rx="16" fill="#111D2B" stroke="#2A5A9F" stroke-opacity="0.4"/>
  <rect x="1030" y="660" width="440" height="120" rx="16" fill="#111D2B" stroke="#2A5A9F" stroke-opacity="0.4"/>
  <text x="150" y="190" fill="#A8BACF" font-family="Inter, Arial" font-size="30" font-weight="700">CandleVision Dashboard Preview</text>
  <text x="150" y="230" fill="#6E829A" font-family="Inter, Arial" font-size="20">Live market panel, AI signals, and session analytics</text>
</svg>
