<svg width="1280" height="800" viewBox="0 0 1280 800" fill="none" xmlns="http://www.w3.org/2000/svg">
  <defs>
    <linearGradient id="rbg" x1="0" y1="0" x2="1280" y2="800" gradientUnits="userSpaceOnUse">
      <stop stop-color="#0A1B2F"/>
      <stop offset="1" stop-color="#091017"/>
    </linearGradient>
  </defs>
  <rect width="1280" height="800" fill="url(#rbg)"/>
  <rect x="70" y="60" width="1140" height="680" rx="24" fill="#0E1927" stroke="#2A5A9F" stroke-opacity="0.4"/>
  <rect x="120" y="120" width="1040" height="470" rx="16" fill="#0C141F"/>
  <g stroke="#39FF14" stroke-width="5" stroke-linecap="round" stroke-opacity="0.9">
    <line x1="170" y1="450" x2="170" y2="280"/>
    <line x1="250" y1="490" x2="250" y2="340"/>
    <line x1="330" y1="430" x2="330" y2="250"/>
    <line x1="410" y1="500" x2="410" y2="300"/>
    <line x1="490" y1="430" x2="490" y2="220"/>
  </g>
  <g stroke="#FF6600" stroke-width="5" stroke-linecap="round" stroke-opacity="0.9">
    <line x1="570" y1="470" x2="570" y2="300"/>
    <line x1="650" y1="520" x2="650" y2="350"/>
    <line x1="730" y1="480" x2="730" y2="260"/>
    <line x1="810" y1="540" x2="810" y2="320"/>
  </g>
  <rect x="120" y="620" width="320" height="80" rx="12" fill="#132234"/>
  <rect x="460" y="620" width="320" height="80" rx="12" fill="#132234"/>
  <rect x="800" y="620" width="360" height="80" rx="12" fill="#132234"/>
  <text x="130" y="95" fill="#A8BACF" font-family="Inter, Arial" font-size="24" font-weight="700">Replay Session Visual</text>
</svg>
